<?xml version="1.0" encoding="UTF-8"?><svg id="a" xmlns="http://www.w3.org/2000/svg" xmlns:xlink="http://www.w3.org/1999/xlink" viewBox="0 0 988.16 148.45"><defs><style>.c{fill:#fff;}.d{fill:#0d0802;}.e{fill:url(#b);}</style><linearGradient id="b" x1="-2.23" y1="27.19" x2="160.84" y2="121.34" gradientTransform="matrix(1, 0, 0, 1, 0, 0)" gradientUnits="userSpaceOnUse"><stop offset="0" stop-color="#0090ff"/><stop offset="1" stop-color="#005fa6"/></linearGradient></defs><g><path class="d" d="M263.44,23.78h20.29l42.86,100.73h-23l-9.14-22.43h-42.29l-9.14,22.43h-22.43l42.86-100.73Zm23.15,58.87l-13.29-32.44-13.29,32.44h26.58Z"/><path class="d" d="M339.03,107.79l55.01-64.01h-53.3V24.49h81.59v16.72l-55.01,64.01h55.01v19.29h-83.3v-16.72Z"/><path class="d" d="M443.19,24.49h46.43c11.43,0,20.43,3.14,26.15,8.86,4.57,4.57,6.86,10.15,6.86,17.29,0,11.29-6,17.57-13.15,21.57,11.57,4.43,18.72,11.14,18.72,24.86,0,18.29-14.86,27.43-37.44,27.43h-47.58V24.49Zm41.72,40.44c9.72,0,15.86-3.14,15.86-10.86,0-6.58-5.15-10.29-14.43-10.29h-21.72v21.15h20.29Zm5.86,40.29c9.71,0,15.57-3.43,15.57-11.14,0-6.71-5-10.86-16.29-10.86h-25.43v22h26.15Z"/><path class="d" d="M541.93,74.5c0-28.43,22.43-51.72,53.3-51.72s53.01,23,53.01,51.72-22.43,51.72-53.3,51.72-53.01-23-53.01-51.72Zm83.3,0c0-17.14-12.58-31.43-30.29-31.43s-30.01,14-30.01,31.43,12.57,31.44,30.29,31.44,30.01-14,30.01-31.44Z"/><path class="d" d="M663.38,74.5c0-28.43,22.43-51.72,53.3-51.72s53.01,23,53.01,51.72-22.43,51.72-53.3,51.72-53.01-23-53.01-51.72Zm83.3,0c0-17.14-12.58-31.43-30.29-31.43s-30.01,14-30.01,31.43,12.57,31.44,30.29,31.44,30.01-14,30.01-31.44Z"/><path class="d" d="M789.26,24.49h22v43.72l40.58-43.72h26.57l-40.72,42.44,42.58,57.58h-26.44l-31-42.58-11.57,12v30.58h-22V24.49Z"/><path class="d" d="M925,23.78h20.29l42.86,100.73h-23l-9.14-22.43h-42.29l-9.14,22.43h-22.43l42.86-100.73Zm23.15,58.87l-13.29-32.44-13.29,32.44h26.58Z"/></g><g><path class="e" d="M134.74,.1V23.92l-6.49-5.56-6.92,5.46V0L31.76,.07C14.21,.09,0,14.31,0,31.86v116.59H126.84c17.55,0,31.79-14.23,31.79-31.79V.1h-23.88Z"/><path class="c" d="M119.35,124.58h15.85L79.34,24.36,23.47,124.58h15.85l20.68-35.82h20.54l-27.23,22.74v13.05h49.96v-13.72h-27.75l23.56-21.35,20.26,35.1Zm-53.43-49.55l13.41-23.23,13.41,23.23h-26.83Z"/></g></svg>