<svg xmlns="http://www.w3.org/2000/svg" xmlns:xlink="http://www.w3.org/1999/xlink" viewBox="0 0 1122 228"><defs><style>.cls-1{fill:none;}.cls-2{clip-path:url(#clip-path);}.cls-3{fill:#0d0802;}.cls-4{clip-path:url(#clip-path-3);}.cls-5{fill:url(#Безымянный_градиент);}.cls-6{fill:#fff;}</style><clipPath id="clip-path"><rect class="cls-1" width="1122" height="228"/></clipPath><clipPath id="clip-path-3"><path class="cls-1" d="M98.68,39.85A31.79,31.79,0,0,0,66.92,71.64V188.22H193.76a31.78,31.78,0,0,0,31.78-31.78V39.88H201.66V63.7l-6.49-5.56-6.93,5.46V39.78Z"/></clipPath><linearGradient id="Безымянный_градиент" x1="46.69" y1="263.04" x2="47.69" y2="263.04" gradientTransform="matrix(0, 188.3, 188.3, 0, -49383.08, -8771.95)" gradientUnits="userSpaceOnUse"><stop offset="0" stop-color="#0090ff"/><stop offset="1" stop-color="#005fa6"/></linearGradient></defs><g id="Слой_2" data-name="Слой 2"><g id="Слой_1-2" data-name="Слой 1"><g class="cls-2"><path class="cls-3" d="M330.37,63.55h20.29l42.86,100.74h-23l-9.15-22.44H319.08l-9.14,22.44H287.5Zm23.15,58.87L340.23,90l-13.29,32.43Z"/><polygon class="cls-3" points="405.96 147.57 460.97 83.56 407.67 83.56 407.67 64.27 489.26 64.27 489.26 80.98 434.25 145 489.26 145 489.26 164.28 405.96 164.28 405.96 147.57"/><g class="cls-2"><path class="cls-3" d="M510.12,64.27h46.43c11.43,0,20.44,3.14,26.15,8.86,4.57,4.57,6.86,10.14,6.86,17.29,0,11.28-6,17.57-13.15,21.57,11.58,4.43,18.72,11.14,18.72,24.86,0,18.29-14.86,27.43-37.43,27.43H510.12Zm41.72,40.43c9.72,0,15.86-3.14,15.86-10.86,0-6.57-5.15-10.28-14.43-10.28H531.55V104.7ZM557.7,145c9.71,0,15.57-3.42,15.57-11.14,0-6.71-5-10.86-16.29-10.86H531.55v22Z"/><path class="cls-3" d="M608.85,114.28c0-28.44,22.43-51.73,53.29-51.73s53,23,53,51.73c0,28.43-22.43,51.72-53.29,51.72s-53-23-53-51.72m83.3,0c0-17.15-12.58-31.44-30.29-31.44s-30,14-30,31.44c0,17.14,12.58,31.43,30.29,31.43s30-14,30-31.43"/><path class="cls-3" d="M730.3,114.28c0-28.44,22.43-51.73,53.3-51.73s53,23,53,51.73c0,28.43-22.44,51.72-53.3,51.72s-53-23-53-51.72m83.3,0c0-17.15-12.57-31.44-30.29-31.44s-30,14-30,31.44c0,17.14,12.58,31.43,30.3,31.43s30-14,30-31.43"/><polygon class="cls-3" points="856.18 64.27 878.19 64.27 878.19 107.99 918.77 64.27 945.34 64.27 904.62 106.7 947.2 164.28 920.76 164.28 889.76 121.71 878.19 133.71 878.19 164.28 856.18 164.28 856.18 64.27"/><path class="cls-3" d="M991.92,63.55h20.29l42.87,100.74h-23l-9.14-22.44H980.64l-9.15,22.44H949.06Zm23.15,58.87L1001.78,90l-13.29,32.43Z"/></g><g class="cls-4"><rect class="cls-5" x="42.3" y="8.2" width="207.87" height="211.59" transform="translate(-25.61 183.64) rotate(-60)"/></g><g class="cls-2"><path class="cls-6" d="M186.27,164.36h15.85L146.26,64.14,90.39,164.36h15.85l20.68-35.82h20.54l-27.23,22.74v13.06h50V150.61H142.45L166,129.26Zm-53.43-49.54,13.42-23.24,13.41,23.24Z"/></g></g></g></g></svg>