<svg id="Слой_1" data-name="Слой 1" xmlns="http://www.w3.org/2000/svg" xmlns:xlink="http://www.w3.org/1999/xlink" viewBox="0 0 2720.97 1774.03"><defs><style>.cls-1{fill:none;}.cls-2{clip-path:url(#clip-path);}.cls-3{opacity:0.2;fill:url(#Безымянный_градиент_26);}</style><clipPath id="clip-path"><rect class="cls-1" x="398.84" y="347.43" width="1920" height="1080"/></clipPath><linearGradient id="Безымянный_градиент_26" x1="123.01" y1="429.64" x2="2673.29" y2="1372.23" gradientUnits="userSpaceOnUse"><stop offset="0.07" stop-color="#dfdcdd"/><stop offset="0.26" stop-color="#d6d4d5"/><stop offset="0.55" stop-color="#bfbec0"/><stop offset="0.91" stop-color="#999b9d"/><stop offset="1" stop-color="#8e9193"/></linearGradient></defs><g class="cls-2"><path class="cls-3" d="M2559.6,171.52,2531.18,176l-25.56,66.26-36,5.65,39.12-44.65-3.63-23.12-22.42,3.51-14.07-17.43L2532.71,0l-28.43,4.46-25.55,66.26-36,5.65,39.13-44.65-3.63-23.13-86.09,13.5L2396,46.71l45.91-7.2-35.93,41L2374.06,41l6.62-17.16-18.18,2.85-10.25,1.61-18.17,2.84,11.55,14.32-18.93,49.1-36,5.64,39.12-44.64-3.62-23.13-86.1,13.5,3.86,24.62,45.9-7.2-35.92,41L2222,64.84l6.62-17.16-18.17,2.85-10.25,1.6L2182,55,2193.6,69.3l-18.94,49.1-36,5.64,39.12-44.65-3.62-23.12-86.1,13.5,3.86,24.61,45.9-7.19-35.92,41L2070,88.68l6.62-17.17-18.17,2.85L2048.19,76,2030,78.82l11.56,14.32-18.94,49.09-36,5.65,39.12-44.65-3.63-23.12L1936,93.6l3.86,24.62,45.9-7.2-35.93,41-32.72-40.54,6.15-15.93L1906.4,98.2,1894.85,100,1878,102.66,1888.71,116l-19.41,50.33-36,5.64,39.12-44.65-3.63-23.12-86.09,13.5,3.86,24.61,45.9-7.19-35.93,41-31.89-39.52,6.62-17.17-18.18,2.85-10.25,1.61-18.17,2.85L1736.2,141l-18.93,49.09-36,5.65,39.12-44.65L1716.75,128l-86.1,13.49,3.86,24.62,45.9-7.2-35.92,41L1612.6,160.4l6.62-17.17L1601,146.08l-10.25,1.61-18.18,2.85,11.56,14.31L1565.24,214l-36,5.65L1568.34,175l-3.62-23.13-86.1,13.5,3.86,24.62,45.9-7.2-35.92,41-31.9-39.51,6.62-17.17L1449,169.92l-10.25,1.61-18.18,2.85,11.56,14.31-18.94,49.1-36,5.65,39.12-44.65-3.63-23.13-86.09,13.5,3.86,24.62,45.9-7.2-35.92,41-32.72-40.54,6.14-15.94L1297,193.76l-11.55,1.81-16.88,2.65,10.73,13.29-19.41,50.32-36,5.65L1263,222.83l-3.63-23.13-86.09,13.5,3.86,24.62,45.9-7.2-35.93,41-31.89-39.51,6.62-17.17-18.18,2.85-10.25,1.61-18.17,2.85,11.55,14.31-18.93,49.1-36,5.65L1111,246.67l-3.63-23.13L1021.23,237l3.86,24.62,45.9-7.2-35.93,41L1003.17,256l6.62-17.16-18.18,2.85-10.25,1.61-18.17,2.84,11.55,14.32-18.93,49.1-36,5.64,39.12-44.64-3.62-23.13-86.1,13.5,3.86,24.62,45.9-7.2-35.92,41-31.89-39.52,6.62-17.16-18.18,2.85-10.25,1.6-18.18,2.85,11.56,14.32-18.93,49.1-36,5.64,39.12-44.65-3.62-23.12-86.1,13.5L721,309.33l45.9-7.19-35.92,41-32.72-40.54,6.14-15.94-16.87,2.64L676,291.13l-16.88,2.64,10.73,13.29-19.41,50.33-36,5.64,39.12-44.64-3.63-23.13-86.09,13.5,3.86,24.62,45.9-7.2-35.92,41-31.9-39.52,6.62-17.16-18.17,2.85L524,315l-18.17,2.85,11.56,14.32-18.94,49.1-36,5.64,39.12-44.65-3.63-23.12L411.8,332.6l3.86,24.61,45.9-7.19-35.93,41-31.89-39.52,6.62-17.17-18.18,2.85-10.25,1.61-18.17,2.85L365.31,356l-18.93,49.09-36,5.65,39.13-44.65-3.63-23.12-86.09,13.49,3.85,24.62,45.91-7.2-35.93,41-31.89-39.51,6.62-17.17L230.15,361l-10.25,1.61-18.17,2.85,11.55,14.31-18.93,49.1-36,5.65,39.12-44.65-3.62-23.13-86.1,13.5,3.86,24.62,45.9-7.2-35.92,41L78.12,384.87l-28.43,4.46L64.1,407.17,0,573.37l28.43-4.46L54,502.65,90,497,50.87,541.65l3.63,23.13,22.42-3.52L91,578.69l-64.1,166.2,28.43-4.45,25.55-66.27,36-5.64L77.77,713.18l3.62,23.12,22.42-3.51,14.07,17.43L53.79,916.42,82.21,912l25.56-66.26,36-5.65L104.66,884.7l3.63,23.13,22.42-3.52,14.07,17.43-64.1,166.2,28.43-4.46,25.55-66.26,36-5.65-39.12,44.65,3.62,23.13,22.42-3.52,14.07,17.43-64.09,166.2L136,1255l25.56-66.27,36-5.64-39.12,44.65,3.63,23.12,22.42-3.51,14.07,17.43L134.47,1431l28.43-4.46,25.55-66.26,36-5.65-39.13,44.65L189,1422.4l22.42-3.52,14.07,17.43-64.09,166.2,28.42-4.46,25.55-66.26,36-5.64-39.12,44.64,3.62,23.13,22.43-3.52,14.07,17.43L188.26,1774l28.43-4.45,25.55-66.26,36-5.65-39.12,44.65,3.63,23.12,86.09-13.5L325,1727.33l-45.9,7.19,35.93-41L346.91,1733l-6.62,17.17,18.18-2.85,10.25-1.61,18.17-2.85-11.55-14.32,18.93-49.09,36-5.65-39.13,44.65,3.63,23.13,86.1-13.5L477,1703.49l-45.9,7.2,35.92-41,31.89,39.51-6.62,17.17,18.18-2.85,10.25-1.61,18.18-2.85-11.56-14.31,18.93-49.1,36-5.65-39.12,44.65,3.62,23.13,86.1-13.5-3.86-24.62-45.9,7.2,35.92-41,31.9,39.51-6.62,17.17,18.17-2.85,10.25-1.61,18.18-2.85L679.4,1680.9l18.94-49.1,36-5.65-39.12,44.65,3.63,23.13,86.09-13.5-3.86-24.62-45.9,7.2,35.92-41,32.72,40.54-6.14,15.94,16.87-2.65,11.55-1.81,16.88-2.64-10.73-13.3,19.41-50.32,36-5.65-39.12,44.65,3.63,23.13,86.09-13.5-3.86-24.62-45.9,7.2,35.93-41,31.89,39.52-6.62,17.16,18.18-2.85,10.25-1.61,18.17-2.85L984.77,1633l18.93-49.1,36-5.65-39.12,44.65,3.63,23.13,86.09-13.5-3.86-24.62-45.9,7.2,35.93-41,31.89,39.52-6.62,17.16,18.18-2.85,10.25-1.6,18.17-2.85-11.55-14.32,18.93-49.1,36-5.64-39.12,44.65,3.62,23.12,86.1-13.5-3.86-24.61-45.9,7.19,35.92-41,31.89,39.52-6.62,17.16,18.18-2.84,10.25-1.61,18.18-2.85-11.56-14.32,18.93-49.09,36-5.65-39.12,44.65,3.62,23.12,86.1-13.5-3.86-24.61-45.9,7.19,35.92-41,32.72,40.54-6.14,15.94,16.87-2.64,11.55-1.81,16.88-2.65-10.73-13.29,19.41-50.33,36-5.64L1458,1551.21l3.63,23.12,86.09-13.5-3.86-24.61-45.9,7.19,35.92-41,31.9,39.52-6.62,17.16,18.17-2.84,10.25-1.61,18.18-2.85-11.56-14.32,18.94-49.09,36-5.65L1610,1527.37l3.63,23.12,86.09-13.5-3.86-24.61-45.9,7.19,35.93-41,31.89,39.52-6.62,17.17,18.18-2.85,10.25-1.61,18.17-2.85-11.55-14.32,18.93-49.09,36-5.65-39.13,44.65,3.63,23.13,86.09-13.5-3.86-24.62-45.9,7.2,35.93-41,31.89,39.51-6.62,17.17,18.18-2.85,10.25-1.61,18.17-2.85-11.55-14.31,18.93-49.1,36-5.65-39.12,44.65,3.62,23.13,86.1-13.5L2000,1464.7l-45.9,7.2,35.92-41,32.72,40.54-6.15,15.94,16.88-2.65,11.55-1.81,16.88-2.65L2051.12,1467l19.4-50.32,36-5.65-39.12,44.65,3.62,23.13,86.1-13.5-3.86-24.62-45.9,7.2,35.92-41,31.9,39.51-6.62,17.17,18.17-2.85,10.25-1.61,18.18-2.85-11.56-14.31,18.94-49.1,36-5.65-39.12,44.65,3.63,23.13,86.09-13.5-3.86-24.62-45.9,7.2,35.92-41,31.9,39.52-6.62,17.16,18.17-2.85,10.26-1.61,18.17-2.85-11.55-14.31,18.93-49.1,36-5.65L2371.48,1408l3.63,23.13,86.09-13.5-3.86-24.62-45.9,7.2,35.93-41,31.89,39.52-6.62,17.16,18.18-2.85,10.25-1.6,18.17-2.85-11.55-14.32,18.93-49.1,36-5.64-39.13,44.65,3.63,23.12,86.1-13.5-3.86-24.61-45.9,7.19,35.92-41,43.45,53.84,28.43-4.46-14.41-17.84,64.1-166.21-28.43,4.46L2667,1271.38l-36,5.65,39.13-44.65-3.63-23.12-22.42,3.51L2630,1195.34l64.09-166.2-28.42,4.46-25.56,66.26-36,5.65,39.12-44.65-3.63-23.13-22.42,3.52-14.07-17.43,64.1-166.2-28.43,4.45-25.55,66.27-36,5.64,39.12-44.64-3.63-23.13-22.42,3.51-14.07-17.43,64.1-166.2-28.43,4.46-25.55,66.26-36,5.65,39.12-44.65-3.62-23.12-22.42,3.51-14.07-17.43,64.09-166.2L2585,519l-25.56,66.26-36,5.65,39.12-44.65-3.63-23.13-22.42,3.52-14.07-17.43,64.1-166.2-28.43,4.45-25.55,66.27-36,5.64,39.12-44.65L2532,351.64l-22.42,3.51-14.07-17.43ZM2402.11,347.2l35.92-41,43.12,53.42-29.34,4.6L2448,340ZM2429,518.72l35.93-41L2508,531.13l-29.34,4.61-3.8-24.21Zm26.9,171.53,35.92-41,43.12,53.42-29.35,4.6-3.79-24.21Zm26.89,171.52,35.93-41,43.11,53.42-29.34,4.6-3.8-24.2Zm26.9,171.53,35.92-41,43.12,53.42-29.35,4.6-3.79-24.21Zm26.89,171.52,35.93-41,43.11,53.42-29.34,4.6-3.8-24.21ZM345.75,1598.36l-35.92,41L266.71,1586l29.35-4.6,3.79,24.2Zm-26.89-171.53-35.93,41-43.11-53.42,29.34-4.6L273,1434ZM292,1255.31l-35.92,41-43.12-53.42,29.35-4.6,3.79,24.21Zm-26.89-171.52-35.92,41L186,1071.38l29.34-4.6,3.8,24.2ZM238.18,912.26l-35.93,41-43.11-53.42,29.34-4.6,3.8,24.21Zm-26.9-171.52-35.92,41-43.12-53.42,29.35-4.6,3.79,24.21ZM184.39,569.22l-35.93,41-43.11-53.42,29.34-4.61,3.8,24.21ZM2375.22,175.68l35.92-41,43.12,53.42-29.35,4.6-3.79-24.21ZM346.59,1635.21l39.12-44.65-3.56-22.71,8.17-1.28,11.22,13.9-18.93,49.1Zm25.66,21.21-15.73,40.79-27.46-34ZM2374.38,138.82l-39.12,44.65,3.56,22.72-8.17,1.28-11.22-13.9,18.93-49.1Zm-25.67-21.2,15.74-40.79,27.46,34Zm35.84,1111,35.92-41,31.9,39.51-6.43,16.67-11.7,1.84-3.79-24.21Zm-40,7.79,3.56,22.72-8.17,1.28-11.22-13.9,18.93-49.1,36-5.65Zm-112.07,16,35.92-41,31.9,39.52-6.43,16.67-11.7,1.84-3.79-24.21Zm-40,7.79,3.56,22.72-8.17,1.28-11.22-13.91,18.93-49.09,36-5.65Zm-112.08,16,35.93-41,31.89,39.52-6.43,16.67-11.69,1.83-3.8-24.2Zm-40,7.8,3.57,22.71-9.47,1.49-10.4-12.88,19.41-50.33,36-5.64Zm-113.37,16.25,35.93-41,32.72,40.54-6,15.45-13,2-3.8-24.21Zm-40,7.79,3.56,22.72-8.16,1.28-11.23-13.91,18.94-49.09,36-5.65Zm-112.07,16,35.92-41,31.9,39.52-6.43,16.67-11.69,1.83L1821,1317Zm-40,7.8,3.56,22.71-8.17,1.28-11.22-13.9,18.94-49.1,36-5.64Zm-112.07,16,35.92-41,31.9,39.52-6.43,16.67-11.7,1.83-3.79-24.21Zm-40,7.79,3.56,22.72-8.17,1.28-11.22-13.9,18.93-49.1,36-5.64Zm-112.07,16.05,35.92-41,31.89,39.52-6.42,16.67-11.7,1.83-3.79-24.21Zm-40,7.79,3.56,22.72-9.47,1.48-10.4-12.88,19.41-50.32,36-5.65Zm-113.38,16.25,35.93-41,32.72,40.54-6,15.45-13,2-3.8-24.21Zm-40,7.79,3.57,22.72-8.17,1.28-11.22-13.9,18.93-49.1,36-5.65Zm-112.07,16,35.93-41,31.89,39.52-6.43,16.67-11.69,1.83-3.8-24.21Zm-40,7.79,3.56,22.72-8.16,1.28-11.23-13.9,18.94-49.1,36-5.65Zm-112.07,16,35.92-41,31.9,39.51-6.43,16.67-11.69,1.84-3.8-24.21Zm-40,7.79,3.56,22.72-8.17,1.28-11.22-13.9,18.94-49.1,36-5.65Zm-112.07,16,35.92-41,31.9,39.51L923,1482.62l-11.7,1.84-3.79-24.21Zm-40,7.79,3.56,22.72-9.47,1.48-10.39-12.88,19.4-50.32,36-5.65ZM708.3,1491.49l35.92-41L776.94,1491l-6,15.44-13,2-3.79-24.21Zm-40,7.79L671.9,1522l-8.17,1.28-11.22-13.91,18.93-49.09,36-5.65Zm-112.08,16,35.93-41,31.89,39.52-6.43,16.67L606,1532.34l-3.8-24.21Zm-40,7.79,3.56,22.72-8.16,1.28-11.22-13.91,18.93-49.09,36-5.65Zm-112.07,16,35.93-41,31.89,39.52-6.43,16.67-11.69,1.83-3.8-24.2ZM336.42,545.38l-35.92,41-31.9-39.52L275,530.2l11.69-1.83,3.8,24.2Zm40-7.8-3.56-22.71,8.17-1.28,11.22,13.9-18.94,49.1-36,5.64Zm112.07-16-35.92,41L420.63,523l6.43-16.67,11.7-1.83,3.79,24.21Zm40-7.79L524.85,491l8.17-1.28,11.22,13.9-18.93,49.1-36,5.65ZM640.48,497.7l-35.92,41L572.67,499.2l6.43-16.68,11.69-1.83,3.79,24.21Zm40-7.79-3.56-22.72,9.47-1.48,10.4,12.88-19.41,50.32-36,5.65Zm113.38-16.25-35.93,41-32.72-40.54,6-15.44,13-2,3.8,24.21Zm40-7.79-3.57-22.72,8.17-1.28,11.22,13.9-18.93,49.1-36,5.65Zm112.07-16.05-35.93,41L878,451.32l6.43-16.68,11.69-1.83L900,457Zm40-7.79-3.56-22.72,8.16-1.28,11.23,13.9L982.7,481l-36,5.65Zm112.07-16L1062,467l-31.9-39.51,6.43-16.67,11.69-1.84,3.8,24.21Zm40-7.79-3.56-22.72,8.17-1.28,11.22,13.91-18.94,49.09-36,5.65Zm112.07-16-35.92,41-31.9-39.52,6.43-16.67,11.7-1.84,3.79,24.21Zm40-7.8-3.56-22.71,9.47-1.49L1306.17,383l-19.4,50.33-36,5.64Zm113.37-16.25-35.92,41-32.72-40.54,6-15.44,13-2,3.79,24.21Zm40-7.79-3.56-22.72,8.17-1.28L1459,360.22l-18.93,49.09-36,5.65Zm112.08-16-35.93,41-31.89-39.52,6.43-16.67,11.69-1.84,3.8,24.21Zm40-7.8-3.57-22.71,8.17-1.28,11.22,13.9-18.93,49.1-36,5.64Zm112.07-16-35.93,41-31.89-39.52,6.43-16.67,11.69-1.83,3.8,24.2Zm40-7.8-3.56-22.71,8.16-1.28,11.23,13.9-18.94,49.1-36,5.64Zm112.07-16-35.92,41-31.9-39.52,6.43-16.67,11.69-1.83,3.8,24.21Zm40-7.79-3.56-22.72,9.47-1.48,10.39,12.87-19.4,50.33-36,5.65Zm113.37-16.25-35.92,41L1944,283l6-15.45,13-2,3.79,24.2Zm40-7.8L2049.07,252l8.17-1.28,11.22,13.9-18.93,49.1-36,5.64Zm112.07-16-35.92,41-31.89-39.52,6.43-16.67L2115,241.7l3.79,24.21Zm40-7.79-3.57-22.72,8.17-1.28,11.22,13.9-18.93,49.1-36,5.65Zm112.07-16-35.93,41-31.89-39.51,6.43-16.68,11.69-1.83,3.8,24.21Zm-5.27,151.35-11.7,1.83L2296,363.84l-45.9,7.2L2286,330l31.9,39.52Zm26.89,171.52-11.69,1.83-3.8-24.2-45.9,7.19,35.93-41,31.89,39.52Zm26.9,171.52-11.7,1.84-3.79-24.21-45.9,7.2,35.92-41,31.89,39.51Zm26.89,171.53-11.69,1.83-3.8-24.21-45.9,7.2,35.92-41,31.9,39.52ZM2419,1072.31l-11.69,1.83-3.8-24.2-45.9,7.19,35.93-41,31.89,39.52Zm-45.26,57.5,27.46,34-43.19,6.77ZM545.5,1416.47l27.46,34-43.2,6.78Zm-136-28.65,11.69-1.84,3.8,24.21,45.9-7.19L435,1444l-31.9-39.52Zm-26.89-171.53,11.69-1.83,3.8,24.21,45.9-7.2-35.93,41L376.18,1233Zm-26.9-171.52,11.7-1.83,3.79,24.21,45.9-7.2-35.92,41-31.9-39.52ZM328.82,873.25l11.69-1.84,3.8,24.21,45.9-7.2-35.93,41-31.89-39.52Zm-26.9-171.53,11.7-1.83,3.79,24.21,45.9-7.2-35.92,41L295.5,718.4Zm45.27-57.49-27.46-34,43.19-6.77Zm1818.47,444.53,3.56,22.72-8.16,1.28-11.23-13.9,18.94-49.1,36-5.64Zm-112.07,16,35.92-41,31.9,39.52L2115,1120l-11.69,1.83-3.8-24.21Zm-40,7.79,3.56,22.72-9.46,1.48-10.4-12.88,19.41-50.32,36-5.65Zm-113.37,16.25,35.92-41,32.72,40.54-6,15.45-13,2-3.79-24.21Zm-40,7.79,3.56,22.72-8.17,1.28-11.22-13.9,18.93-49.1,36-5.64Zm-112.07,16,35.92-41L1816,1151.2l-6.42,16.67-11.7,1.83-3.79-24.21Zm-40,7.79,3.56,22.72-8.17,1.28-11.22-13.9,18.93-49.1,36-5.65Zm-112.08,16,35.93-41L1664,1175l-6.43,16.68-11.69,1.83-3.8-24.21Zm-40,7.79,3.57,22.72-8.17,1.28-11.22-13.9,18.93-49.1,36-5.65Zm-112.07,16,35.93-41,31.89,39.51-6.43,16.67-11.69,1.84-3.8-24.21Zm-40,7.79,3.56,22.72-9.46,1.48-10.4-12.88,19.41-50.32,36-5.65Zm-113.37,16.25,35.92-41,32.72,40.54-6,15.44-13,2-3.8-24.21Zm-40,7.79,3.56,22.72-8.17,1.28L1235,1242.3l18.94-49.1,36-5.65Zm-112.07,16,35.92-41,31.9,39.51-6.43,16.67-11.7,1.84-3.79-24.21Zm-40,7.79,3.56,22.72-8.17,1.28L1083,1266.13l18.93-49.09,36-5.65Zm-112.07,16,35.92-41,31.89,39.52-6.43,16.67-11.69,1.83-3.79-24.2Zm-40,7.8,3.57,22.71-8.17,1.28L931,1290l18.93-49.1,36-5.64Zm-112.07,16,35.93-41,31.89,39.52-6.43,16.67-11.69,1.83-3.8-24.21Zm-40,7.79,3.56,22.72-9.46,1.49L778.47,1315l19.41-50.33,36-5.64ZM681.4,1320l35.93-41,32.72,40.54-6,15.45-13,2-3.8-24.2Zm-40,7.8,3.56,22.71-8.16,1.28-11.23-13.9,18.94-49.1,36-5.64ZM555.31,685.27l-3.57-22.72,8.17-1.28,11.22,13.91L552.2,724.27l-36,5.65Zm112.07-16-35.93,41-31.89-39.52L606,654.05l11.69-1.84,3.8,24.21Zm40-7.8-3.56-22.72,9.46-1.48,10.4,12.88-19.41,50.32-36,5.65Zm113.37-16.25-35.92,41-32.72-40.54L758,630.21l13-2,3.8,24.21Zm40-7.79-3.56-22.72,8.17-1.28L876.5,627.3l-18.94,49.09-36,5.65Zm112.07-16-35.92,41-31.9-39.52,6.43-16.67,11.7-1.84,3.79,24.21Zm40-7.8-3.56-22.71,8.17-1.29,11.22,13.91-18.93,49.09-36,5.65Zm112.07-16-35.92,41L1057,599l6.43-16.67,11.69-1.83,3.79,24.2Zm40-7.8L1161.17,567l8.17-1.28,11.22,13.9-18.93,49.1-36,5.64Zm112.08-16-35.93,41L1209,575.16l6.43-16.67,11.69-1.83,3.8,24.21Zm40-7.79-3.56-22.72,9.46-1.49,10.4,12.88-19.41,50.33-36,5.65Zm113.37-16.25-35.93,41-32.72-40.54,6-15.45,13-2,3.8,24.2Zm40-7.8-3.56-22.71,8.16-1.28,11.23,13.9L1467,580.84l-36,5.64Zm112.07-16-35.92,41-31.9-39.52,6.43-16.67,11.69-1.83,3.8,24.21Zm40-7.79-3.56-22.72,8.17-1.28L1638,507.9,1619,557l-36,5.65ZM1734.2,502l-35.92,41-31.9-39.51,6.43-16.68,11.7-1.83,3.79,24.21Zm40-7.79-3.56-22.72,8.17-1.28,11.22,13.9-18.93,49.1-36,5.65Zm112.08-16.05-35.93,41-31.89-39.51,6.43-16.67,11.69-1.84,3.79,24.21Zm40-7.79-3.57-22.72,9.47-1.48L1942.5,459l-19.41,50.32-36,5.65Zm113.37-16.25-35.93,41-32.72-40.54,6-15.44,13-2,3.8,24.21Zm-1188.14,777-43.2,6.77L824,1197.07ZM1869.54,543l43.2-6.78L1897,577ZM1833.4,965.12l3.57,22.72-8.17,1.28-11.22-13.9,18.93-49.1,36-5.65Zm-112.07,16,35.93-41,31.89,39.51-6.43,16.67L1771,998.18l-3.8-24.21Zm-40,7.79,3.56,22.72-8.16,1.28-11.23-13.91L1684.48,950l36-5.65Zm-112.07,16,35.92-41,31.9,39.52-6.43,16.67L1619,1022l-3.8-24.21Zm-40,7.8,3.56,22.71-8.17,1.29-11.22-13.91,18.94-49.1,36-5.64Zm-112.07,16,35.92-41,31.9,39.52-6.43,16.67-11.7,1.83-3.79-24.2Zm-40,7.8,3.56,22.71-9.47,1.49L1361,1048l19.4-50.33,36-5.64Zm-113.37,16.24,35.92-41,32.72,40.54-6,15.45-13,2-3.79-24.21Zm-40,7.8,3.56,22.71-8.17,1.28-11.22-13.9,18.93-49.1,36-5.64Zm-112.08,16,35.93-41,31.89,39.52-6.43,16.67-11.69,1.83-3.8-24.2Zm-40,7.8,3.56,22.71-8.16,1.28-11.22-13.9,18.93-49.1,36-5.64Zm-112.07,16,35.93-41,31.89,39.52-6.43,16.67-11.69,1.83-3.8-24.21Zm-40,7.79,3.56,22.72-8.16,1.28-11.23-13.9,18.94-49.1,36-5.65ZM887.56,808.91,884,786.2l8.17-1.28,11.22,13.9-18.93,49.1-36,5.64Zm112.08-16-35.93,41-31.89-39.52,6.43-16.67,11.69-1.83,3.8,24.21Zm40-7.79L1036,762.36l8.17-1.28,11.22,13.9-18.93,49.1-36,5.65ZM1151.67,769l-35.93,41-31.89-39.52,6.43-16.67L1102,752l3.8,24.21Zm40-7.79-3.56-22.72,8.16-1.28,11.23,13.9-18.94,49.1-36,5.65Zm112.07-16-35.92,41-31.9-39.51,6.43-16.67,11.69-1.84,3.8,24.21Zm40-7.79-3.56-22.72,9.47-1.48L1360,726.08l-19.4,50.32-36,5.65ZM1457,721.15l-35.92,41-32.72-40.54,5.95-15.44,13-2,3.79,24.21Zm40-7.79-3.56-22.72,8.17-1.28,11.22,13.9-18.93,49.1-36,5.65Zm112.07-16.05-35.92,41-31.89-39.51,6.43-16.67,11.69-1.84,3.79,24.21Zm40-7.79-3.57-22.72,8.17-1.28,11.22,13.91-18.93,49.09-36,5.65Zm112.07-16-35.93,41L1693.28,675l6.43-16.67,11.69-1.84,3.8,24.21Zm-50.54,208.84,27.47,34-43.2,6.78Zm-609.42,95.56,27.46,34-43.2,6.77Zm-90.74-86.15-27.46-34,43.2-6.77Zm492-50.45L1506,864l-8.17,1.28-11.22-13.9,18.93-49.1,36-5.65Zm-50.68,31.23-11.69,1.83-3.8-24.21-45.9,7.2,35.93-41,31.89,39.51Zm-62.23-52-39.12,44.65,3.56,22.72-9.46,1.48-10.4-12.88,19.41-50.32Zm-25.66-21.2,15.74-40.79,27.46,34Zm-64.14,97.07-13,2-3.8-24.21-45.9,7.2,35.93-41,32.72,40.54ZM1236.2,844.5l-39.12,44.65,3.56,22.72-8.16,1.28-11.23-13.9,18.94-49.1Zm-25.66-21.2,15.73-40.79,27.47,34Zm-64.14,97.08-11.69,1.83-3.8-24.21-45.9,7.2,35.92-41,31.9,39.51Zm-29.23,5,11.7-1.84,3.79,24.21,45.9-7.2-35.92,41-31.9-39.51Zm62.23,52,39.12-44.65L1215,910l8.17-1.28,11.22,13.91-18.93,49.09Zm25.66,21.2-15.73,40.8-27.46-34Zm64.15-97.07,11.69-1.83,3.79,24.2,45.91-7.19-35.93,41-31.89-39.52Zm62.22,52,39.13-44.65L1367,886.21l9.47-1.49,10.4,12.88-19.41,50.33Zm25.67,21.21-15.74,40.79-27.46-34Zm64.14-97.08,13-2,3.8,24.21,45.9-7.2-35.93,41-32.72-40.54Zm63.53,51.83,39.12-44.65-3.56-22.72,8.16-1.28,11.22,13.91-18.93,49.09Zm25.66,21.2-15.74,40.8-27.46-34Zm64.14-97.07,11.69-1.83,3.8,24.2,45.9-7.19-35.93,41-31.89-39.52Zm29.22-5-11.69,1.83-3.79-24.21-45.9,7.2,35.92-41L1610.22,832Zm-87.89-73.24,15.74-40.79,27.46,34Zm-431.73,92.92L1045.05,913l3.56,22.72-8.17,1.28-11.22-13.9,18.94-49.1Zm-25.66-21.2,15.73-40.79,27.46,34Zm8,109.46-3.56-22.72,8.17-1.28,11.22,13.9-18.94,49.1-36,5.65Zm570.31-50.91L1675.92,861l-3.56-22.71,8.16-1.28,11.23,13.9-18.94,49.1Zm25.66,21.21-15.73,40.79-27.47-34Zm-8-109.46,3.56,22.71-8.17,1.28-11.22-13.9,18.93-49.1,36-5.64ZM1467.8,820l-27.46-34,43.19-6.77ZM1287,810l43.19-6.77L1314.47,844Zm-124.57,57.86-27.47-34,43.2-6.77ZM994.37,944.21l-11.7,1.84-3.79-24.21L933,929l35.92-41,31.9,39.51Zm-29.23,5,11.69-1.83,3.8,24.21,45.9-7.2-35.92,41-31.9-39.51Zm87.89,73.24-15.73,40.79-27.46-34ZM1253.17,954l27.46,34-43.2,6.78ZM1434,964l-43.19,6.77L1406.5,930Zm124.57-57.86,27.46,34L1542.8,947Zm168.07-76.33,11.7-1.83,3.79,24.21L1788,845l-35.92,41-31.9-39.52Zm29.23-5-11.7,1.83-3.79-24.2-45.9,7.19,35.92-41,31.9,39.52Zm-87.89-73.24,15.73-40.79,27.46,34Zm-75.57,10.56,43.2-6.77-15.74,40.79Zm-660.23,130L893,936.83l3.56,22.72-8.17,1.28-11.22-13.91,18.93-49.09ZM906.48,871l15.73-40.8,27.46,34Zm8,109.46-3.56-22.72,8.16-1.28,11.23,13.9-18.94,49.1-36,5.65Zm18.91,62.06,15.73-40.79,27.47,34Zm855.46-160.65L1828,837.21l-3.56-22.72,8.17-1.28,11.22,13.9-18.93,49.1Zm25.66,21.21-15.73,40.79-27.46-34Zm-8-109.46,3.56,22.71-8.17,1.29-11.22-13.91,18.94-49.09,36-5.65Zm-44.57-83.27,39.12-44.65L1797.5,643l8.16-1.28,11.22,13.91L1798,704.68Zm25.66,21.2-15.74,40.8-27.46-34Zm-8-109.46,3.56,22.72-8.17,1.28-11.22-13.9,18.93-49.1,36-5.65Zm-50.69,31.23-11.69,1.83-3.8-24.21-45.9,7.2,35.93-41,31.89,39.52Zm-62.23-52-39.12,44.65,3.56,22.72-8.16,1.28L1611.76,656l18.93-49.1ZM1641,580.06l15.74-40.79,27.46,34Zm-64.14,97.07L1565.21,679l-3.8-24.21-45.9,7.2,35.93-41,31.89,39.51Zm-62.23-52-39.12,44.65,3.56,22.72-8.16,1.28-11.23-13.91,18.94-49.09ZM1489,603.9l15.73-40.79,27.47,34ZM1424.87,701l-11.69,1.84-3.8-24.21-45.9,7.2,35.92-41,31.9,39.52Zm-62.23-52-39.12,44.65,3.56,22.72-9.47,1.48-10.39-12.88,19.4-50.32ZM1337,627.74l15.73-40.8,27.46,34Zm-64.14,97.07-13,2-3.79-24.21-45.9,7.2,35.92-41,32.72,40.54ZM1209.31,673l-39.12,44.65,3.56,22.72-8.17,1.28-11.22-13.91,18.93-49.09Zm-25.66-21.2,15.73-40.8,27.46,34Zm-64.15,97.07-11.69,1.84L1104,726.48l-45.91,7.19,35.93-41,31.89,39.52Zm-62.22-52-39.13,44.65,3.57,22.72-8.17,1.28-11.22-13.91,18.93-49.09Zm-25.67-21.2,15.74-40.8,27.46,34Zm-64.14,97.07-11.69,1.83-3.8-24.2-45.9,7.19,35.93-41L973.9,756Zm-62.23-52-39.12,44.65L869.68,788l-8.16,1.28-11.23-13.9,18.94-49.1Zm-25.66-21.21,15.74-40.79,27.46,34Zm-64.14,97.08-11.69,1.83L800,774.15l-45.9,7.2,35.92-41,31.9,39.52Zm-30.52,5.2,13-2,3.79,24.2,45.9-7.19-35.92,41L779,817.18Zm89.19,73-15.74,40.79-27.46-34Zm-31.78,93.28-11.69,1.84-3.79-24.21-45.91,7.19,35.93-41,31.89,39.52Zm-30.52,5.21,13-2,3.8,24.21,45.9-7.2-35.93,41L805.85,988.7Zm89.19,73-15.73,40.79-27.47-34Zm-31.77,93.29-11.69,1.83-3.8-24.21-45.9,7.2,35.92-41,31.9,39.51Zm-30.53,5.2,13-2,3.79,24.21,45.9-7.2-35.92,41-32.72-40.54Zm63.53,51.83L941.35,1152l-3.56-22.72L946,1128l11.22,13.91L938.25,1191Zm25.66,21.2-15.73,40.8-27.46-34ZM992,1120.74l11.69-1.83,3.79,24.2,45.9-7.19-35.92,41-31.89-39.52Zm62.22,52,39.13-44.65-3.57-22.71,8.17-1.28,11.22,13.9-18.93,49.1Zm25.67,21.2-15.74,40.8-27.46-34Zm64.14-97.07,11.69-1.83,3.8,24.21,45.9-7.2-35.93,41-31.89-39.52Zm62.23,52,39.12-44.64-3.56-22.72,8.16-1.28,11.22,13.9-18.93,49.1Zm25.66,21.21-15.74,40.79-27.46-34Zm64.14-97.08,11.69-1.83,3.8,24.21,45.9-7.2-35.92,41-31.9-39.52Zm62.23,52,39.12-44.65-3.56-22.72,9.46-1.48,10.4,12.87-19.41,50.33Zm25.66,21.2-15.73,40.79-27.47-34Zm64.14-97.08,13-2,3.8,24.21,45.9-7.2-35.92,41-32.72-40.54Zm63.53,51.83,39.12-44.64-3.56-22.72,8.17-1.28,11.22,13.9-18.93,49.1Zm25.66,21.21-15.73,40.79-27.46-34Zm64.14-97.08,11.7-1.83,3.79,24.21,45.9-7.2-35.92,41-31.9-39.52Zm62.23,52,39.12-44.65-3.56-22.72,8.17-1.28,11.22,13.9-18.93,49.1Zm25.66,21.2-15.73,40.79-27.46-34Zm64.15-97.08,11.69-1.83,3.8,24.21,45.9-7.2-35.93,41L1747.07,1018Zm62.22,52,39.13-44.65L1851.28,986l8.17-1.28,11.22,13.9-18.93,49.1Zm25.67,21.2-15.74,40.79-27.46-34Zm64.14-97.07,11.69-1.84,3.8,24.21,45.9-7.2-35.93,41-31.89-39.51Zm30.52-5.21-13,2-3.8-24.21-45.9,7.2,35.93-41L1942,956.86Zm-89.19-73,15.74-40.79,27.46,34ZM1878.63,806l11.7-1.83,3.79,24.21,45.9-7.2-35.92,41-31.9-39.52Zm30.53-5.2-13,2-3.8-24.21-45.9,7.19,35.92-41,32.72,40.54Zm-89.19-73L1835.7,687l27.46,34Zm31.77-93.29,11.69-1.83,3.8,24.2,45.9-7.19-35.92,41-31.9-39.52Zm30.52-5.21-13,2-3.79-24.21-45.9,7.2,35.92-41,32.72,40.54Zm-89.19-73,15.74-40.79,27.46,34ZM770.74,716.52l-43.19,6.77,15.73-40.79Zm-17.53,28-39.12,44.65,3.56,22.72-9.46,1.49-10.4-12.88,19.41-50.33Zm-19,88.47-3.56-22.72,9.47-1.49,10.39,12.88L731.13,872l-36,5.65ZM797.64,888l-43.2,6.78L770.18,854Zm-17.53,28L741,960.67l3.57,22.71-9.47,1.49L724.68,972l19.41-50.32Zm-19,88.46-3.56-22.72,9.46-1.48,10.4,12.88L758,1043.48l-36,5.65Zm63.4,55.09-43.19,6.77,15.73-40.79Zm-17.53,28-39.12,44.65,3.56,22.72-9.47,1.48-10.39-12.88,19.4-50.32ZM788,1176l-3.56-22.71,9.47-1.49,10.39,12.88L784.92,1215l-36,5.64Zm1162.2-118.48,43.2-6.78-15.73,40.8Zm17.54-28,39.12-44.65-3.56-22.72,9.46-1.48,10.4,12.88-19.41,50.32Zm19-88.46,3.56,22.72-9.47,1.48-10.4-12.88,19.41-50.32,36-5.65ZM1923.33,886l43.2-6.77L1950.79,920Zm17.53-28L1980,813.37l-3.56-22.72,9.47-1.48,10.39,12.88-19.4,50.32Zm19-88.46,3.56,22.71-9.46,1.49-10.4-12.88L1963,730.55l36-5.64Zm-63.41-55.09,43.2-6.77-15.73,40.79Zm17.54-28,39.12-44.65-3.56-22.71,9.46-1.49,10.4,12.88L1950,680.85ZM1933,598l3.56,22.72-9.47,1.48-10.39-12.88,19.4-50.32,36-5.65Zm-188,2.77-27.46-34L1760.7,560Zm-152,23.84-27.46-34,43.19-6.77Zm-152,23.84-27.47-34,43.2-6.77Zm-180.8-10,43.2-6.77-15.74,40.79Zm-124.57,57.86-27.46-34,43.2-6.77Zm-152,23.84-27.46-34,43.19-6.78ZM831.48,744,804,710l43.19-6.78ZM663.41,820.37l-13,2-3.79-24.2-45.9,7.19,35.92-41,32.72,40.54Zm-30.53,5.2,11.7-1.83L648.37,848l45.9-7.2-35.92,41-31.9-39.52Zm87.89,73.24L705,939.6l-27.46-34ZM690.3,991.89l-13,2-3.8-24.21-45.9,7.2,35.93-41,32.72,40.54Zm-30.52,5.2,11.69-1.83,3.8,24.21,45.9-7.2-35.93,41-31.89-39.51Zm87.89,73.24-15.74,40.79-27.46-34Zm-30.47,93.08-13,2-3.79-24.21-45.9,7.2,35.92-41L723.15,1148Zm-30.53,5.21,11.69-1.84,3.8,24.21,45.9-7.19-35.92,41-31.9-39.52Zm87.89,73.23-15.73,40.8-27.46-34ZM976,1173.23l27.46,34-43.2,6.77Zm152-23.84,27.46,34-43.19,6.78Zm152-23.83,27.46,34-43.19,6.77Zm180.8,10-43.2,6.78,15.73-40.8Zm124.57-57.85,27.46,34-43.2,6.77Zm152-23.84,27.46,34-43.2,6.77Zm152-23.84,27.46,34-43.19,6.77Zm168.07-76.33,13-2,3.8,24.21,45.9-7.2-35.92,41-32.73-40.54Zm30.53-5.21-11.7,1.84-3.79-24.21-45.9,7.2,35.92-41,31.89,39.51Zm-87.9-73.23,15.74-40.8,27.46,34Zm30.48-93.09,13-2,3.8,24.21,45.9-7.2-35.93,41-32.72-40.54Zm30.52-5.2-11.69,1.83-3.8-24.2-45.9,7.19,35.93-41,31.89,39.52ZM1973.3,703.7,1989,662.91l27.47,34Zm30.47-93.08,13-2,3.79,24.21,45.9-7.19-35.92,41-32.72-40.54Zm30.53-5.2-11.7,1.83L2018.81,583l-45.9,7.2,35.92-41,31.9,39.52Zm-87.89-73.24,15.73-40.79,27.46,34ZM693.88,727.28l-15.73,40.8-27.47-34Zm-94,41.26-39.12,44.65,3.56,22.71-8.17,1.28-11.22-13.9,18.93-49.1Zm-25.66-21.21L590,706.54l27.46,34Zm8,109.46-3.56-22.71,8.17-1.28L598,846.7l-18.94,49.1-36,5.64Zm44.57,83.27-39.12,44.65,3.56,22.72-8.16,1.28L571.83,994.8l18.93-49.09Zm-25.66-21.2,15.74-40.8,27.46,34Zm8,109.46-3.56-22.72,8.17-1.28,11.22,13.9L606,1067.32,570,1073Zm44.58,83.26-39.12,44.65,3.56,22.72-8.17,1.28-11.22-13.9,18.93-49.1ZM628,1090.38l15.73-40.79,27.46,34Zm8,109.46-3.56-22.72,8.16-1.28,11.23,13.91-18.94,49.09-36,5.65Zm18.91,62.06,15.73-40.79,27.47,34Zm1372.19-215.15,15.73-40.79,27.46,34Zm94-41.25,39.12-44.65-3.56-22.72,8.16-1.28,11.23,13.9-18.94,49.1Zm25.66,21.2L2131,1067.49l-27.46-34Zm-8-109.46,3.56,22.72-8.17,1.28-11.22-13.9,18.93-49.1,36-5.65ZM2094.19,834l39.13-44.64-3.57-22.72,8.17-1.28,11.22,13.9-18.93,49.1Zm25.67,21.21L2104.12,896l-27.46-34Zm-8-109.46,3.57,22.71-8.17,1.29-11.22-13.91L2115,706.72l36-5.65Zm-44.57-83.27,39.12-44.65-3.56-22.72,8.17-1.28,11.22,13.91-18.93,49.09Zm25.66,21.2-15.73,40.8-27.46-34Zm-8-109.46,3.56,22.72-8.17,1.28-11.22-13.9,18.94-49.1,36-5.65Zm-44.57-83.26,39.12-44.65L2076,423.56l8.16-1.28,11.22,13.9-18.93,49.1Zm25.66,21.2-15.74,40.79-27.46-34Zm-8-109.46,3.57,22.72-8.17,1.28-11.22-13.9,18.93-49.1,36-5.65Zm-50.68,31.22-11.69,1.84-3.8-24.21-45.9,7.2,35.93-41,31.89,39.51Zm-62.23-52-39.12,44.65,3.56,22.72-9.46,1.48-10.4-12.88,19.41-50.32Zm-25.66-21.2,15.74-40.8,27.46,34Zm-64.14,97.07-13,2-3.8-24.21-45.9,7.2,35.93-41,32.72,40.54Zm-63.53-51.83-39.12,44.65,3.56,22.72-8.16,1.28-11.23-13.9,18.94-49.1Zm-25.66-21.2,15.73-40.79,27.47,34ZM1702,481.77l-11.69,1.84-3.8-24.21-45.9,7.2,35.92-41,31.9,39.51Zm-62.23-52-39.12,44.65,3.56,22.72-8.17,1.28-11.22-13.91,18.94-49.09Zm-25.66-21.2,15.73-40.8,27.46,34ZM1550,505.61l-11.7,1.83-3.79-24.2-45.9,7.19,35.92-41,31.9,39.52Zm-62.23-52-39.12,44.65,3.56,22.71-8.17,1.28-11.22-13.9,18.93-49.1Zm-25.66-21.21,15.73-40.79,27.46,34ZM1398,529.45l-11.69,1.83-3.79-24.21-45.91,7.2,35.93-41,31.89,39.52Zm-62.22-52-39.13,44.64,3.57,22.72-9.47,1.49-10.4-12.88,19.41-50.33Zm-25.67-21.21,15.74-40.79,27.46,34Zm-64.14,97.08-13,2-3.8-24.2-45.9,7.19,35.93-41,32.72,40.54Zm-63.53-51.83-39.12,44.65,3.56,22.71-8.16,1.28-11.22-13.9,18.93-49.1Zm-25.66-21.21,15.74-40.79,27.46,34Zm-64.14,97.08-11.69,1.83-3.8-24.21-45.9,7.2,35.92-41,31.9,39.52Zm-62.23-52-39.12,44.64,3.56,22.72-8.16,1.28L975.43,580l18.94-49.1Zm-25.66-21.21,15.73-40.79,27.47,34Zm-64.14,97.08L928.88,603l-3.79-24.21-45.9,7.2,35.92-41L947,584.5Zm-62.23-52-39.12,44.65,3.56,22.72-8.17,1.28-11.22-13.9,18.93-49.1Zm-25.66-21.2,15.73-40.79,27.46,34ZM788.55,625l-11.7,1.83-3.79-24.21-45.9,7.2,35.92-41L795,608.33Zm-62.23-52L687.2,617.62l3.56,22.72-9.47,1.48L670.9,628.94l19.4-50.32Zm-25.67-21.2L716.39,511l27.46,34Zm-64.14,97.07-13,2-3.8-24.21-45.9,7.2,35.93-41,32.72,40.54ZM573,597l-39.13,44.65,3.57,22.72-8.17,1.28L518,651.76,537,602.66Zm-25.67-21.2L563.06,535l27.46,34Zm-64.14,97.07-11.69,1.84-3.8-24.21-45.9,7.2,35.93-41,31.89,39.51Zm-29.22,5,11.69-1.84,3.8,24.21,45.9-7.2-35.93,41-31.89-39.51Zm87.89,73.23-15.74,40.8-27.46-34Zm-31.77,93.29-11.7,1.83L494.59,822l-45.9,7.2,35.92-41,31.9,39.52Zm-29.23,5,11.69-1.83,3.8,24.2,45.9-7.19-35.92,41-31.9-39.52Zm87.89,73.24L553,963.44l-27.46-34ZM537,1015.93l-11.69,1.84-3.8-24.21-45.9,7.19,35.92-41,31.9,39.52Zm-29.22,5,11.69-1.83,3.79,24.21,45.9-7.2-35.92,41-31.89-39.52Zm87.89,73.24L579.9,1135l-27.46-34Zm-31.78,93.29-11.69,1.83-3.79-24.21-45.91,7.2,35.93-41,31.89,39.51Zm-29.22,5,11.69-1.84,3.8,24.21,45.9-7.2-35.93,41-31.89-39.51Zm87.89,73.23-15.73,40.8-27.47-34ZM590.76,1359l-11.69,1.83-3.8-24.21-45.9,7.2,35.92-41,31.9,39.52Zm-29.23,5,11.7-1.83,3.79,24.2,45.9-7.19-35.92,41-31.9-39.52Zm62.23,52,39.12-44.65-3.56-22.71,8.17-1.28,11.22,13.9-18.93,49.1Zm25.66,21.21L633.69,1478l-27.46-34Zm64.15-97.08,11.69-1.83,3.79,24.21,45.91-7.2-35.93,41-31.89-39.52Zm62.22,52,39.13-44.65-3.57-22.72,9.47-1.49,10.4,12.88-19.41,50.33Zm25.67,21.2-15.74,40.79-27.46-34Zm64.14-97.08,13-2,3.8,24.2,45.9-7.19-35.93,41-32.72-40.54Zm63.53,51.83,39.12-44.65-3.56-22.71,8.16-1.28,11.22,13.9-18.93,49.1Zm25.66,21.21-15.74,40.79-27.46-34Zm64.14-97.08,11.69-1.83,3.8,24.21,45.9-7.2-35.93,41-31.89-39.52Zm62.23,52,39.12-44.65-3.56-22.72,8.16-1.28,11.23,13.9-18.94,49.1Zm25.66,21.2-15.73,40.79-27.47-34Zm64.14-97.08,11.7-1.83,3.79,24.21,45.9-7.2-35.92,41-31.9-39.51Zm62.23,52,39.12-44.65-3.56-22.72,8.17-1.28,11.22,13.9-18.93,49.1Zm25.66,21.2-15.73,40.79-27.46-34Zm64.14-97.07,11.7-1.84,3.79,24.21,45.9-7.2-35.92,41-31.9-39.51Zm62.23,52,39.12-44.65-3.56-22.72,9.47-1.48,10.39,12.88-19.4,50.32Zm25.67,21.2-15.74,40.8-27.46-34Zm64.14-97.07,13-2,3.79,24.21,45.91-7.2-35.93,41-32.72-40.54Zm63.52,51.83,39.13-44.65-3.57-22.72,8.17-1.28,11.22,13.9-18.93,49.1Zm25.67,21.2-15.74,40.79-27.46-34Zm64.14-97.07,11.69-1.84,3.8,24.21,45.9-7.2-35.93,41-31.89-39.51Zm62.23,52,39.12-44.65-3.56-22.72,8.16-1.28,11.23,13.91-18.94,49.09Zm25.66,21.2-15.73,40.8-27.47-34Zm64.14-97.07,11.69-1.84,3.8,24.21,45.9-7.19-35.92,41-31.9-39.52Zm62.23,52,39.12-44.65-3.56-22.71,8.17-1.29,11.22,13.91-18.94,49.09Zm25.66,21.2-15.73,40.8-27.46-34Zm64.14-97.07,11.7-1.83,3.79,24.2,45.9-7.19-35.92,41L1926,1165.7Zm62.23,52,39.12-44.65-3.56-22.71,9.47-1.49,10.39,12.88-19.4,50.33Zm25.66,21.21-15.73,40.79-27.46-34Zm64.15-97.08,13-2,3.79,24.21,45.9-7.19-35.92,41-32.72-40.54ZM2148,1177l39.12-44.65-3.56-22.71,8.17-1.29,11.22,13.91-18.93,49.1Zm25.67,21.2-15.74,40.8-27.46-34Zm64.14-97.07,11.69-1.83,3.8,24.2,45.9-7.19-35.93,41-31.89-39.52Zm29.22-5-11.69,1.83-3.8-24.21-45.9,7.2,35.93-41,31.89,39.52Zm-87.89-73.24,15.73-40.79,27.47,34Zm31.77-93.28,11.7-1.84,3.79,24.21,45.9-7.2-35.92,41-31.9-39.51Zm29.23-5-11.7,1.83-3.79-24.21-45.9,7.2,35.92-41,31.9,39.51Zm-87.89-73.24L2168,810.6l27.46,34ZM2184,758.1l11.69-1.83,3.8,24.21,45.9-7.2-35.93,41-31.89-39.52Zm29.22-5-11.69,1.84-3.8-24.21-45.9,7.19,35.93-41,31.89,39.52Zm-87.89-73.23,15.74-40.8,27.46,34Zm31.77-93.29,11.7-1.83,3.79,24.2,45.9-7.19-35.92,41-31.9-39.52Zm29.23-5-11.69,1.83-3.8-24.21-45.9,7.2,35.92-41,31.9,39.52Zm-87.89-73.24,15.73-40.79,27.46,34Zm31.77-93.28,11.69-1.84,3.8,24.21,45.9-7.2-35.93,41-31.89-39.51Zm29.22-5-11.69,1.83L2144,387.68l-45.9,7.2,35.92-41,31.89,39.51Zm-87.89-73.24L2087.28,296l27.46,34ZM421,620.85,381.83,665.5l3.56,22.72-8.16,1.28L366,675.6l18.94-49.1Zm-25.66-21.2L411,558.86l27.47,34Zm8,109.46-3.56-22.72,8.17-1.28L419.1,699l-18.93,49.1-36,5.65Zm44.58,83.26L408.73,837l3.56,22.72L404.12,861l-11.22-13.9L411.83,798Zm-25.67-21.2,15.74-40.79,27.46,34Zm8,109.46-3.56-22.72,8.16-1.28L446,870.54l-18.94,49.09-36,5.65Zm44.57,83.27-39.12,44.65,3.56,22.71-8.16,1.29-11.23-13.91,18.94-49.09Zm-25.66-21.2,15.73-40.8,27.47,34Zm8,109.46-3.56-22.72,8.17-1.28,11.22,13.9L454,1091.16l-36,5.64Zm44.58,83.26-39.13,44.65,3.57,22.72-8.17,1.28-11.22-13.9,18.93-49.1ZM476,1114.22l15.74-40.79,27.46,34Zm8,109.46L480.39,1201l8.17-1.28,11.22,13.9-18.93,49.1-36,5.65ZM528.53,1307l-39.12,44.64,3.56,22.72-8.17,1.28-11.22-13.9,18.94-49.1Zm-25.66-21.21L518.6,1245l27.46,34Zm8,109.46-3.56-22.71,8.17-1.29,11.22,13.91-18.94,49.1-36,5.64Zm1789.17-242,39.12-44.65-3.57-22.71,8.17-1.28,11.22,13.9-18.93,49.1Zm25.66,21.21-15.74,40.79-27.46-34Zm-8-109.46,3.57,22.71-8.17,1.28-11.22-13.9,18.93-49.1,36-5.64Zm-44.57-83.27L2312.24,937l-3.56-22.72,8.17-1.28,11.22,13.91L2309.14,976Zm25.66,21.2-15.73,40.8-27.46-34Zm-8-109.46,3.56,22.72-8.17,1.28L2275,903.5l18.94-49.1,36-5.65Zm-44.57-83.26,39.12-44.65-3.56-22.72,8.16-1.28,11.23,13.9-18.94,49.1Zm25.66,21.2-15.73,40.79-27.47-34Zm-8-109.46,3.56,22.72-8.17,1.28L2248.08,732,2267,682.88l36-5.65Zm-44.58-83.27L2258.45,594l-3.56-22.71,8.17-1.28,11.22,13.9L2255.35,633ZM2245,659.82l-15.73,40.79-27.46-34Zm-8-109.46,3.56,22.71-8.16,1.28-11.23-13.9,18.94-49.1,36-5.64Zm-44.57-83.27,39.12-44.65L2228,399.72l8.16-1.28,11.23,13.91-18.94,49.09Zm25.66,21.2-15.73,40.8-27.47-34Zm-8-109.46,3.56,22.72-8.17,1.28-11.22-13.9,18.93-49.1,36-5.65Zm-186.68,2.57-27.46-34,43.19-6.77Zm-180.79-10,43.19-6.77-15.73,40.79Zm-124.57,57.86-27.47-34,43.2-6.77Zm-152,23.84-27.46-34,43.2-6.78ZM1414,477l-27.46-34,43.2-6.78Zm-180.79-10,43.19-6.78L1260.68,501Zm-124.57,57.86-27.46-34,43.19-6.78Zm-152,23.83-27.47-34,43.2-6.77Zm-152,23.84-27.46-34,43.2-6.77Zm-180.79-10,43.2-6.77-15.74,40.79ZM499.22,620.39l-27.46-34L515,579.6ZM389.82,775l-15.74,40.79-27.46-34Zm26.89,171.52L401,987.28l-27.47-34ZM443.6,1118l-15.73,40.79-27.46-34Zm26.9,171.52-15.74,40.79-27.46-34Zm26.89,171.52-15.73,40.8-27.46-34Zm200.14-68.41,27.46,34-43.2,6.77Zm180.79,10-43.19,6.78,15.73-40.8Zm124.57-57.85,27.46,34-43.19,6.77Zm152-23.84,27.47,34-43.2,6.77Zm152-23.84,27.46,34-43.2,6.77Zm180.79,10-43.2,6.77,15.74-40.79Zm124.57-57.86,27.46,34-43.19,6.77Zm152-23.84,27.46,34-43.19,6.77Zm152-23.84,27.47,34-43.2,6.78Zm180.8,10-43.2,6.77,15.74-40.79Zm124.57-57.86,27.46,34-43.2,6.78Zm109.4-154.57,15.74-40.79,27.46,34Zm-26.89-171.52L2320,786.76l27.46,34ZM2277.36,656l15.74-40.8,27.46,34ZM2250.47,484.5l15.73-40.79,27.47,34ZM2223.58,313l15.73-40.79,27.46,34ZM2148,323.54l43.2-6.77-15.74,40.79Zm-1842.33,317,31.9,39.51-6.43,16.67-11.69,1.84-3.8-24.21-45.9,7.2Zm26.9,171.52,31.89,39.52L358,868.25l-11.69,1.83-3.8-24.21-45.9,7.2Zm26.89,171.52,31.9,39.52-6.43,16.67-11.7,1.83-3.79-24.2-45.9,7.19Zm26.9,171.53,31.89,39.51-6.43,16.67-11.69,1.84-3.8-24.21-45.9,7.2Zm26.89,171.52,31.9,39.52-6.43,16.67-11.7,1.83-3.79-24.21-45.9,7.2Zm2002-193.13L2383.39,1094l6.43-16.67,11.69-1.83,3.8,24.21,45.9-7.2ZM2388.39,962l-31.89-39.52,6.42-16.67,11.7-1.83,3.79,24.2,45.9-7.19ZM2361.5,790.45l-31.9-39.51,6.43-16.68,11.69-1.83,3.8,24.21,45.9-7.2Zm-26.9-171.52-31.89-39.52,6.43-16.67,11.69-1.83,3.8,24.21,45.9-7.2Zm-26.89-171.52-31.9-39.52,6.43-16.67,11.7-1.84,3.79,24.21,45.9-7.19Zm9.87-175.68,39.12-44.65-3.56-22.72,8.16-1.28,11.23,13.9-18.94,49.1Zm25.66,21.2-15.74,40.79-27.46-34Zm-58.67-78.24-11.69,1.84-3.8-24.21-45.9,7.2,35.93-41L2291,198Zm-62.23-52-39.12,44.65,3.56,22.72-8.16,1.28L2167.4,217.4l18.93-49.09Zm-25.66-21.2,15.74-40.8,27.46,34Zm-64.14,97.07-11.69,1.83-3.8-24.2-45.9,7.19,35.93-41L2139,221.86Zm-62.23-52-39.12,44.65,3.56,22.71-8.16,1.28-11.23-13.9,18.94-49.1Zm-25.66-21.2,15.73-40.8,27.47,34Zm-64.14,97.07-11.7,1.83L1965,240l-45.9,7.2,35.92-41,31.9,39.52Zm-62.23-52L1879.16,255l3.56,22.72-9.47,1.49-10.39-12.88,19.4-50.33Zm-25.66-21.21,15.73-40.79,27.46,34Zm-64.14,97.08-13,2-3.79-24.2-45.9,7.19,35.92-41,32.72,40.54ZM1765,234.38,1725.83,279l3.56,22.71-8.17,1.28L1710,289.12l18.93-49.1Zm-25.66-21.21L1755,172.38l27.46,34Zm-64.15,97.08-11.69,1.83-3.79-24.21-45.91,7.2,35.93-41,31.89,39.52Zm-62.22-52-39.13,44.64,3.57,22.72-8.17,1.28L1558,313l18.93-49.1ZM1587.25,237,1603,196.22l27.46,34Zm-64.14,97.08-11.69,1.83-3.8-24.21-45.9,7.2,35.93-41,31.89,39.52Zm-62.23-52-39.12,44.65,3.56,22.72-8.16,1.28-11.23-13.9,18.94-49.1Zm-25.66-21.2L1451,220.06l27.46,34Zm-64.14,97.08-11.69,1.83-3.8-24.21-45.9,7.2,35.92-41,31.9,39.51Zm-62.23-52-39.12,44.65,3.56,22.72-9.46,1.48-10.4-12.88,19.41-50.32Zm-25.66-21.2,15.73-40.79,27.46,34Zm-64.14,97.07-13,2-3.79-24.21-45.9,7.2,35.92-41L1225,366.32Zm-63.53-51.83-39.12,44.65L1120,397.3l-8.17,1.28-11.22-13.9,18.93-49.1Zm-25.66-21.2,15.73-40.79,27.46,34Zm-64.14,97.08-11.7,1.83-3.79-24.21-45.9,7.2,35.92-41,31.9,39.51Zm-62.23-52-39.12,44.65,3.56,22.72-8.17,1.28-11.22-13.9,18.93-49.1Zm-25.67-21.2,15.74-40.79,27.46,34Zm-64.14,97.07L902,431.48l-3.8-24.21-45.9,7.2,35.93-41L920.11,413Zm-62.23-52-39.12,44.65L815.9,445l-8.17,1.28-11.22-13.91,18.93-49.09Zm-25.66-21.2,15.74-40.8,27.46,34Zm-64.14,97.07L750,455.31l-3.8-24.2-45.9,7.19,35.93-41,31.89,39.52Zm-62.23-52L660.3,446.1l3.56,22.71-9.46,1.49L644,457.42l19.41-50.33Zm-25.66-21.2,15.73-40.8,27.47,34Zm-64.14,97.07-13,2-3.8-24.21-45.9,7.2,35.92-41,32.73,40.54Zm-63.53-51.83L507,470.14l3.56,22.72-8.16,1.28-11.23-13.91,18.94-49.09Zm-25.66-21.2,15.73-40.8,27.46,34Zm-64.14,97.07-11.7,1.83L440.8,479l-45.9,7.19,35.92-41,31.9,39.52Zm-62.23-52L354.94,494l3.56,22.71L350.33,518l-11.22-13.9L358,455ZM368.4,428.12l15.73-40.79,27.46,34ZM304.26,525.2,292.56,527l-3.79-24.21-45.9,7.2,35.92-41,31.89,39.52Zm-62.23-52-39.12,44.64,3.56,22.72-8.17,1.28-11.22-13.9L206,478.81ZM216.36,452l15.74-40.79,27.46,34Zm8,109.46-3.56-22.71,8.16-1.28,11.23,13.9-18.94,49.1-36,5.64Zm-13.46,65.85-15.74,40.8-27.46-34Zm75.56-10.56-43.19,6.78L259,582.69Zm-17.53,28L229.8,689.34l3.56,22.72-8.17,1.28L214,699.43l18.94-49.09ZM251.24,733l-3.56-22.72,8.17-1.28,11.22,13.9L248.14,772l-36,5.65ZM237.78,798.8l-15.73,40.79-27.46-34Zm75.57-10.56L270.15,795l15.74-40.79Zm-17.54,28-39.12,44.65,3.57,22.72-8.17,1.28L240.87,871l18.93-49.1Zm-17.67,88.26-3.57-22.72,8.17-1.28L294,894.38,275,943.47l-36,5.65Zm-13.46,65.85-15.74,40.79-27.46-34Zm75.56-10.56-43.19,6.77,15.73-40.79Zm-17.53,28-39.12,44.65,3.56,22.71-8.17,1.28-11.22-13.9,18.93-49.1ZM305,1076l-3.56-22.71,8.17-1.28,11.22,13.9L301.92,1115l-36,5.64Zm-13.46,65.86-15.73,40.79-27.46-34Zm75.57-10.57-43.2,6.78,15.74-40.8Zm-17.54,28-39.12,44.65,3.56,22.72-8.16,1.28L294.65,1214l18.94-49.09Zm-17.68,88.26-3.56-22.72,8.17-1.28,11.22,13.9-18.93,49.1-36,5.65Zm-13.45,65.85-15.74,40.79-27.46-34ZM394,1302.81l-43.19,6.77,15.73-40.79Zm-17.53,28-39.12,44.65,3.56,22.72-8.17,1.28-11.22-13.9,18.93-49.1ZM358.82,1419l-3.56-22.72,8.16-1.28L374.65,1409,355.71,1458l-36,5.65Zm-13.46,65.85-15.73,40.8-27.47-34Zm75.57-10.56-43.2,6.77,15.73-40.79Zm-17.54,28L364.27,1547l3.56,22.71-8.16,1.28-11.23-13.9,18.94-49.1Zm33,57,11.69-1.83,3.79,24.21,45.9-7.2-35.92,41L430,1576Zm62.22,52,39.13-44.65L534.18,1544l8.17-1.28,11.22,13.9-18.93,49.1Zm25.67,21.2-15.74,40.79-27.46-34Zm64.14-97.08,11.69-1.83,3.8,24.21,45.9-7.2-35.93,41L582,1552.18Zm62.23,52,39.12-44.65-3.56-22.72,8.16-1.28,11.22,13.9-18.93,49.1Zm25.66,21.2-15.74,40.79-27.46-34Zm64.14-97.07,11.69-1.84L756,1534l45.9-7.2-35.92,41L734,1528.34Zm62.23,52,39.12-44.65-3.56-22.72,9.46-1.48,10.4,12.88-19.41,50.32Zm25.66,21.2-15.73,40.8-27.47-34Zm64.14-97.07,13-2,3.8,24.21,45.9-7.2-35.92,41-32.72-40.54ZM956,1539.66,995.14,1495l-3.56-22.72,8.17-1.28,11.22,13.9L992,1534Zm25.66,21.2L966,1601.65l-27.46-34Zm64.14-97.07,11.7-1.84,3.79,24.21,45.9-7.2-35.92,41-31.9-39.51Zm62.23,52,39.12-44.65-3.56-22.72,8.17-1.28,11.22,13.91-18.93,49.09Zm25.66,21.2-15.73,40.8-27.46-34Zm64.15-97.07,11.69-1.84,3.8,24.21,45.9-7.19-35.93,41-31.89-39.52Zm62.22,52,39.13-44.65-3.57-22.72,8.17-1.28,11.22,13.91-18.93,49.09Zm25.67,21.2L1270,1554l-27.46-34Zm64.14-97.07,11.69-1.83,3.8,24.2,45.9-7.19-35.93,41-31.89-39.52Zm62.23,52,39.12-44.65-3.56-22.71,9.46-1.49,10.4,12.88-19.41,50.33Zm25.66,21.21-15.73,40.79-27.47-34Zm64.14-97.08,13-2,3.8,24.21,45.9-7.19-35.92,41L1496,1407.72Zm63.53,51.83,39.12-44.65-3.56-22.71,8.16-1.29,11.23,13.91-18.94,49.09Zm25.66,21.2-15.73,40.8-27.46-34Zm64.14-97.07,11.7-1.83,3.79,24.2,45.9-7.19-35.92,41-31.9-39.52Zm62.23,52,39.12-44.65L1753,1352.9l8.17-1.28,11.22,13.9-18.93,49.1Zm25.66,21.21-15.73,40.79-27.46-34Zm64.14-97.08,11.7-1.83,3.79,24.21,45.9-7.2-35.92,41-31.89-39.52Zm62.23,52,39.12-44.65-3.56-22.72,8.17-1.28,11.22,13.9-18.93,49.1Zm25.67,21.2-15.74,40.79-27.46-34Zm64.14-97.08,11.69-1.83,3.8,24.21,45.9-7.2-35.93,41-31.89-39.51Zm62.23,52,39.12-44.65-3.57-22.72,9.47-1.48,10.4,12.88-19.41,50.32Zm25.66,21.2-15.74,40.79-27.46-34Zm64.14-97.07,13-2,3.8,24.21,45.9-7.2-35.93,41-32.72-40.54Zm63.53,51.83L2214,1303.9l-3.56-22.72,8.16-1.28,11.23,13.9-18.94,49.1Zm25.66,21.2-15.73,40.79-27.47-34Zm64.14-97.08,11.69-1.83,3.8,24.21,45.9-7.2-35.92,41-31.9-39.51Zm62.23,52,39.12-44.65-3.56-22.72,8.17-1.28,11.22,13.9-18.94,49.1Zm25.66,21.2-15.73,40.79-27.46-34Zm64.14-97.07,11.7-1.84,3.79,24.21,45.9-7.2-35.92,41-31.9-39.51Zm62.23,52,39.12-44.65-3.56-22.72,8.17-1.28,11.22,13.91L2515,1295.22Zm25.66,21.2-15.73,40.8-27.46-34Zm-8-109.46,3.56,22.72-8.16,1.28-11.23-13.9,18.94-49.1,36-5.65Zm13.46-65.85,15.73-40.79,27.47,34Zm-75.57,10.56,43.2-6.77L2462,1191.34Zm17.54-28,39.12-44.65-3.56-22.72,8.16-1.28,11.23,13.9-18.94,49.1Zm17.68-88.26,3.56,22.72-8.17,1.28-11.22-13.91,18.93-49.09,36-5.65Zm13.46-65.85,15.73-40.8,27.46,34Zm-75.57,10.56,43.2-6.78-15.74,40.8Zm17.53-28,39.12-44.65-3.56-22.71,8.17-1.28,11.22,13.9-18.93,49.1Zm17.68-88.25,3.56,22.71-8.16,1.28L2427,879.66l18.94-49.1,36-5.64Zm13.46-65.86L2472,762.92l27.47,34Zm-75.56,10.56,43.19-6.77-15.73,40.79Zm17.53-28,39.12-44.65-3.56-22.72,8.17-1.28,11.22,13.9-18.94,49.1ZM2415.94,698l3.56,22.72-8.17,1.28-11.22-13.9L2419,659l36-5.65Zm13.46-65.85,15.73-40.79,27.46,34Zm-75.57,10.56L2397,636l-15.74,40.79Zm17.53-28,39.13-44.65-3.57-22.72,8.17-1.28,11.22,13.9-18.93,49.1ZM2389,526.52l3.57,22.72-8.17,1.28-11.22-13.91,18.93-49.09,36-5.65Zm13.46-65.85,15.74-40.8,27.46,34Zm-75.56,10.56,43.19-6.78-15.73,40.8Zm17.53-28,39.12-44.65L2380,375.89l8.17-1.29,11.22,13.91-18.93,49.09ZM2362.15,355l3.56,22.72-8.17,1.28-11.22-13.9,18.94-49.1,36-5.64Zm13.46-65.85,15.73-40.79,27.46,34Zm119.66-20.05-15.73,40.8-27.47-34Zm-62.42-17L2401,212.53l6.43-16.67,11.69-1.84,3.8,24.21,45.9-7.2Zm35.53-154.47-15.74,40.79-27.46-34Zm-152,23.84-15.73,40.79-27.46-34Zm-152,23.84L2148.58,186l-27.46-34Zm-152,23.83-15.73,40.8-27.47-34Zm-153.33,24-15.74,40.79-27.46-34Zm-152,23.83-15.74,40.8-27.46-34Zm-152,23.84-15.73,40.79-27.46-34Zm-152,23.84-15.73,40.79-27.46-34Zm-153.33,24-15.73,40.79-27.47-34Zm-152,23.84-15.74,40.79-27.46-34Zm-152,23.84-15.74,40.79-27.46-34Zm-152,23.84L777.69,401l-27.46-34Zm-153.33,24L624.36,425,596.9,391Zm-152,23.84-15.73,40.79-27.47-34ZM336,431.91l-15.74,40.8-27.46-34ZM184,455.75l-15.73,40.79-27.46-34ZM64.33,475.8,80.07,435l27.46,34Zm62.43,17.05,31.89,39.52L152.22,549l-11.69,1.83-3.8-24.21-45.9,7.2ZM91.23,647.32,107,606.53l27.46,34Zm62.42,17,31.9,39.52-6.43,16.67-11.7,1.83-3.79-24.2-45.9,7.19ZM118.12,818.85l15.73-40.79,27.47,34Zm62.43,17,31.89,39.51L206,892.08l-11.69,1.84-3.8-24.21-45.9,7.2ZM145,990.37l15.74-40.79,27.46,34Zm62.43,17,31.89,39.52-6.42,16.67-11.7,1.83-3.79-24.21-45.9,7.2ZM171.91,1161.9l15.73-40.8,27.46,34Zm62.42,17,31.9,39.52-6.43,16.67L248.11,1237l-3.8-24.21-45.9,7.19ZM198.8,1333.42l15.74-40.79,27.46,34Zm62.43,17L293.12,1390l-6.43,16.68L275,1408.49l-3.79-24.21-45.91,7.2ZM225.7,1504.94l15.73-40.79,27.46,34Zm62.42,17,31.9,39.52-6.43,16.67L301.9,1580l-3.8-24.21-45.9,7.2Zm-35.53,154.48,15.74-40.8,27.46,34Zm152-23.84,15.74-40.8,27.46,34Zm152-23.84L572.39,1588l27.46,34Zm152-23.84,15.73-40.79,27.46,34Zm153.33-24,15.73-40.79,27.47,34Zm152-23.84,15.74-40.79,27.46,34Zm152-23.84,15.74-40.79,27.46,34Zm152-23.83,15.73-40.8,27.46,34Zm153.33-24.05,15.73-40.79,27.46,34Zm152-23.83,15.73-40.8,27.47,34Zm152-23.84,15.74-40.8,27.46,34Zm152-23.84,15.73-40.79,27.46,34Zm153.33-24,15.73-40.8,27.46,34Zm152-23.84,15.73-40.79,27.47,34Zm152-23.84,15.74-40.79,27.46,34Zm152-23.84,15.74-40.79,27.46,34Zm119.67-20L2640.9,1339l-27.46-34Zm-62.43-17-31.89-39.52,6.43-16.67,11.69-1.84,3.79,24.21,45.9-7.19Zm35.53-154.48L2614,1167.5l-27.46-34Zm-62.42-17-31.9-39.51,6.43-16.68,11.69-1.83,3.8,24.21,45.9-7.2Zm35.53-154.47L2587.11,996l-27.46-34Zm-62.43-17.05-31.89-39.52L2515,882l11.69-1.83,3.8,24.2,45.9-7.19ZM2576,783.66l-15.73,40.8-27.46-34Zm-62.42-17-31.9-39.51,6.43-16.67,11.7-1.84,3.79,24.21,45.9-7.2Zm35.53-154.47-15.73,40.79-27.47-34Zm-62.43-17-31.89-39.52,6.43-16.67,11.69-1.83,3.8,24.21,45.9-7.2Zm35.54-154.47-15.74,40.79-27.46-34Zm-62.43-17.05-31.9-39.52,6.43-16.67,11.7-1.83,3.79,24.2,45.9-7.19Z"/></g></svg>